<svg xmlns="http://www.w3.org/2000/svg" xmlns:xlink="http://www.w3.org/1999/xlink" viewBox="0 0 236.82 236.82"><defs><style>.cls-1,.cls-3,.cls-5{fill:none;}.cls-2{clip-path:url(#clip-path);}.cls-3,.cls-5{stroke:#fff;stroke-width:2px;}.cls-3{stroke-miterlimit:10;}.cls-4{font-size:150px;font-family:HelveticaNeue-Thin, Helvetica Neue;}.cls-4,.cls-6{fill:#fff;}</style><clipPath id="clip-path" transform="translate(0 0)"><rect class="cls-1" width="236.82" height="236.82"/></clipPath></defs><title>logo1</title><g id="Lag_2" data-name="Lag 2"><g id="Lag_1-2" data-name="Lag 1"><g id="logo1"><g class="cls-2"><g class="cls-2"><circle class="cls-3" cx="118.41" cy="118.41" r="117.41"/><circle class="cls-3" cx="118.41" cy="118.41" r="110.72"/></g><text class="cls-4" transform="translate(32.46 171.12)">H</text><g class="cls-2"><polygon class="cls-5" points="41.91 171.12 48.52 171.12 48.52 118.32 116.92 118.32 116.92 171.12 123.52 171.12 123.52 64.02 116.92 64.02 116.92 112.62 48.52 112.62 48.52 64.02 41.91 64.02 41.91 171.12"/></g><text class="cls-4" transform="translate(110.98 172.54)">S</text><g class="cls-2"><path class="cls-5" d="M196.93,96a36.35,36.35,0,0,0-3.75-15.15,29.34,29.34,0,0,0-8.77-10.28,37.68,37.68,0,0,0-12.75-5.85A63.16,63.16,0,0,0,156,62.89a53.6,53.6,0,0,0-12.75,1.57,37.26,37.26,0,0,0-11.62,5,26.48,26.48,0,0,0-8.4,8.85A25.46,25.46,0,0,0,120,91.39q0,7.65,3.15,12.52a24.91,24.91,0,0,0,8.25,8,45.61,45.61,0,0,0,11.7,4.88q6.6,1.8,13.35,3.15t13.43,2.92a54.13,54.13,0,0,1,11.7,4.2,23.2,23.2,0,0,1,8.32,6.9q3.15,4.28,3.15,11a20.78,20.78,0,0,1-3.07,11.7,24.86,24.86,0,0,1-7.65,7.5,31.68,31.68,0,0,1-10.05,4.05,48.16,48.16,0,0,1-10.28,1.2,64.3,64.3,0,0,1-15.15-1.73A34.36,34.36,0,0,1,134.31,162a27,27,0,0,1-8.33-10q-3-6.08-2.55-14.92h-6.6q-.15,10.35,3.38,17.55a31.78,31.78,0,0,0,9.67,11.77,39.5,39.5,0,0,0,14.4,6.6,74.08,74.08,0,0,0,17.7,2,55.88,55.88,0,0,0,12.83-1.58A37.65,37.65,0,0,0,187,168.34,30.39,30.39,0,0,0,196,159q3.6-5.7,3.6-14.1,0-7.8-3.15-13a25.31,25.31,0,0,0-8.32-8.4,46.74,46.74,0,0,0-11.7-5.1q-6.53-1.86-13.43-3.22-6.75-1.35-13.35-2.85a54.38,54.38,0,0,1-11.7-4,22.9,22.9,0,0,1-8.25-6.52q-3.15-4-3.15-10.5a20,20,0,0,1,2.85-11,22,22,0,0,1,7.28-7,30.83,30.83,0,0,1,9.6-3.67,48.76,48.76,0,0,1,9.67-1,51.15,51.15,0,0,1,13.58,1.72,31.2,31.2,0,0,1,10.72,5.18A25.13,25.13,0,0,1,187.41,84a28.68,28.68,0,0,1,2.92,12Z" transform="translate(0 0)"/><path class="cls-6" d="M8.21,111.69c0-3,0-6,.07-9,0-2.73-4.47-3.52-4.91-.67Q2.53,107.53,1.68,113c-.48,3.15,4.33,4.51,4.82,1.33q.84-5.52,1.69-11.05l-4.91-.66c0,3,0,6-.07,9,0,3.22,5,3.22,5,0" transform="translate(0 0)"/><path class="cls-6" d="M8.77,98.65l.85-8.21a2.53,2.53,0,0,0-2.5-2.5,2.55,2.55,0,0,0-2.5,2.5l-.85,8.21a2.51,2.51,0,0,0,2.5,2.5,2.55,2.55,0,0,0,2.5-2.5" transform="translate(0 0)"/><path class="cls-6" d="M2.1,98.49a52.29,52.29,0,0,1-.78,8.65l4.91.66c.23-2.48,2.67-4.81,3.46-7.21,1-3.11-3.68-4.26-4.82-1.33C2,106.49-.1,116.15,2,123.8a2.51,2.51,0,0,0,4.91-.66,72.11,72.11,0,0,1,1-10.88c.52-3.11-4-4.51-4.82-1.33a62.37,62.37,0,0,0-.8,26.95c.45,2.38,4.4,2.4,4.83,0a102,102,0,0,0,1.68-13.37c.14-3.22-4.86-3.21-5,0a90.24,90.24,0,0,1-1.51,12H7.09a56.1,56.1,0,0,1,.79-24.29l-4.82-1.33a80.47,80.47,0,0,0-1.14,12.21l4.92-.67c-1.85-6.68.37-15.53,2.85-21.88L4.87,99.26c-1,3.16-3.32,5.1-3.64,8.54-.26,2.79,4.42,3.45,4.91.67a60.78,60.78,0,0,0,1-10c0-3.22-5-3.22-5,0" transform="translate(0 0)"/><path class="cls-6" d="M3.87,141a15.66,15.66,0,0,0,.56,4.52c.72,2.73,4.9,2.16,4.91-.66a15.27,15.27,0,0,0-.82-4.16,14.57,14.57,0,0,1,0-5.81h-5c.85,7,1.43,13.88,4.71,20.19,1.49,2.85,5.81.33,4.32-2.53-2.85-5.48-3.29-11.63-4-17.66a2.5,2.5,0,0,0-5,0,19.23,19.23,0,0,0-.2,5.14c.21,1.64,1.07,3.17,1.07,4.83l4.91-.67A7.08,7.08,0,0,1,8.87,141c.06-3.22-4.94-3.22-5,0" transform="translate(0 0)"/><path class="cls-6" d="M7.08,154.49a92,92,0,0,0,4.53,10.39c1.51,2.84,5.83.32,4.32-2.53a78.91,78.91,0,0,1-4-9.19c-1.14-3-6-1.69-4.83,1.33" transform="translate(0 0)"/><path class="cls-6" d="M8.56,155.15a14.34,14.34,0,0,0,1,4.93,2.58,2.58,0,0,0,3.08,1.74,2.51,2.51,0,0,0,1.74-3.07,10.44,10.44,0,0,1-.85-3.6,2.55,2.55,0,0,0-2.5-2.5,2.53,2.53,0,0,0-2.5,2.5" transform="translate(0 0)"/><path class="cls-6" d="M15.81,169.23c3.21,0,3.22-5,0-5s-3.23,5,0,5" transform="translate(0 0)"/><path class="cls-6" d="M14.32,168.76c3.22,0,3.23-5,0-5s-3.22,5,0,5" transform="translate(0 0)"/><path class="cls-6" d="M15.34,167.93c3.22,0,3.23-5,0-5s-3.22,5,0,5" transform="translate(0 0)"/><path class="cls-6" d="M14.88,172.1c3.22,0,3.22-5,0-5s-3.22,5,0,5" transform="translate(0 0)"/><path class="cls-6" d="M17.38,171.91c3.22,0,3.22-5,0-5s-3.22,5,0,5" transform="translate(0 0)"/><path class="cls-6" d="M16.18,174.69c3.21,0,3.22-5,0-5s-3.23,5,0,5" transform="translate(0 0)"/><path class="cls-6" d="M5.16,143.49c3.22,0,3.22-5,0-5s-3.22,5,0,5" transform="translate(0 0)"/><path class="cls-6" d="M3.22,135.17c-.28,4.39-.31,8.61,1.1,12.83,1,3.05,1.67,6.26,4.49,8.12s5.2-2.55,2.52-4.32c-1.64-1.08-2.57-5.91-2.95-7.73a33.56,33.56,0,0,1-.16-8.9c.21-3.21-4.79-3.2-5,0" transform="translate(0 0)"/><path class="cls-6" d="M3,134.51c-.62,4.29,1.2,8.11,1.52,12.34.26,3.43.87,6.59,3.67,8.88,2.48,2,6-1.51,3.54-3.54s-2-4.79-2.34-7.63-2-5.79-1.56-8.72c.46-3.15-4.36-4.5-4.83-1.33" transform="translate(0 0)"/><path class="cls-6" d="M9.42,156.45c3.21,0,3.22-5,0-5s-3.23,5,0,5" transform="translate(0 0)"/><path class="cls-6" d="M17.84,175.15c3.22,0,3.23-5,0-5s-3.22,5,0,5" transform="translate(0 0)"/><path class="cls-6" d="M21.12,173.28a1.36,1.36,0,0,1,.42.47c.27.48.1.25.05,0s0,.45,0,.15a2.79,2.79,0,0,0,0-.5,5.59,5.59,0,0,0-.58-2.66,2.5,2.5,0,0,0-3.41-.89,2.54,2.54,0,0,0-.9,3.41c-.08-.15-.11-.73-.11-.28v.52a6.9,6.9,0,0,0,.12,1.5,3.79,3.79,0,0,0,1.84,2.56,2.5,2.5,0,0,0,2.53-4.32" transform="translate(0 0)"/><path class="cls-6" d="M26.33,181.53c-1.39-2.27-2.88-4.49-4.44-6.65a2.57,2.57,0,0,0-3.42-.89,2.52,2.52,0,0,0-.9,3.42q2.36,3.24,4.45,6.64c1.68,2.74,6,.23,4.31-2.52" transform="translate(0 0)"/><path class="cls-6" d="M24.45,187.07c.23.13.19.09-.12-.14a1.39,1.39,0,0,1,.21.21c-.22-.32-.27-.36-.12-.14a1.69,1.69,0,0,1,.13.27L28,183.85l-.87-.39-.35-.15-.27-.12c-.36-.17-.17,0,.56.64.12.42.23.84.34,1.26l0-.13c-.12.42-.23.84-.34,1.26.16-.35.37-.69.56-1a2.5,2.5,0,1,0-4.31-2.52c-.18.32-.38.64-.54,1a2.82,2.82,0,0,0,0,2.81,5.26,5.26,0,0,0,2.66,1.72,2.62,2.62,0,0,0,3-.4,3,3,0,0,0,.64-1.1,2.67,2.67,0,0,0-.25-1.92,4.51,4.51,0,0,0-1.89-2,2.5,2.5,0,0,0-2.53,4.32" transform="translate(0 0)"/><path class="cls-6" d="M23.29,185.06c1,2,1.93,4,3,5.91a6.71,6.71,0,0,0,4.55,3.3c2,.54,4-1.8,2.82-3.68a28.53,28.53,0,0,1-2.22-4.11,2.52,2.52,0,0,0-3.42-.89,2.56,2.56,0,0,0-.89,3.42,28.61,28.61,0,0,0,2.22,4.11l2.82-3.67c-.66-.18-1-.23-1.44-.77a12.79,12.79,0,0,1-1-1.88l-2.16-4.27c-1.45-2.87-5.76-.34-4.31,2.53" transform="translate(0 0)"/><path class="cls-6" d="M32.19,196.82c-1.43.08-.14-.28-.25-.1a6.31,6.31,0,0,0,.35.61,12.77,12.77,0,0,0,1.15,1.61,9.63,9.63,0,0,0,2.85,2.26c2.83,1.51,5.36-2.8,2.52-4.32a5.88,5.88,0,0,1-2.37-2.37c-.94-1.55-2.34-2.8-4.25-2.69a2.55,2.55,0,0,0-2.5,2.5,2.52,2.52,0,0,0,2.5,2.5" transform="translate(0 0)"/><path class="cls-6" d="M30.63,192.48c.27,3.5,3.11,6,5.27,8.51a2.51,2.51,0,0,0,3.53,0,2.54,2.54,0,0,0,0-3.53l-2.5-2.94c-.47-.56-1.24-1.27-1.3-2a2.55,2.55,0,0,0-2.5-2.5,2.52,2.52,0,0,0-2.5,2.5" transform="translate(0 0)"/><path class="cls-6" d="M44.41,207.91c3.22,0,3.22-5,0-5s-3.22,5,0,5" transform="translate(0 0)"/><path class="cls-6" d="M40.76,204.4c3.21,0,3.22-5,0-5s-3.23,5,0,5" transform="translate(0 0)"/><path class="cls-6" d="M40.19,202.43c3.22,0,3.23-5,0-5s-3.22,5,0,5" transform="translate(0 0)"/><path class="cls-6" d="M38.79,204.25c3.22,0,3.22-5,0-5s-3.22,5,0,5" transform="translate(0 0)"/><path class="cls-6" d="M42.16,205.1c3.22,0,3.22-5,0-5s-3.22,5,0,5" transform="translate(0 0)"/><path class="cls-6" d="M41.74,206.36c3.22,0,3.22-5,0-5s-3.22,5,0,5" transform="translate(0 0)"/><path class="cls-6" d="M43,205.66c3.22,0,3.23-5,0-5s-3.22,5,0,5" transform="translate(0 0)"/><path class="cls-6" d="M46.38,209.59c3.21,0,3.22-5,0-5s-3.23,5,0,5" transform="translate(0 0)"/><path class="cls-6" d="M46.38,208.19c3.21,0,3.22-5,0-5s-3.23,5,0,5" transform="translate(0 0)"/><path class="cls-6" d="M48.2,212.12c3.22,0,3.23-5,0-5s-3.22,5,0,5" transform="translate(0 0)"/><path class="cls-6" d="M49.19,210.58c3.21,0,3.22-5,0-5s-3.23,5,0,5" transform="translate(0 0)"/><path class="cls-6" d="M52.14,213.11c3.21,0,3.22-5,0-5s-3.23,5,0,5" transform="translate(0 0)"/><path class="cls-6" d="M51.72,214.23c3.21,0,3.22-5,0-5s-3.23,5,0,5" transform="translate(0 0)"/><path class="cls-6" d="M54.67,216.49a6.78,6.78,0,0,1,.78,0c.63,0-.22-.11.38.07.07,0,.72.27.38.11a5.84,5.84,0,0,1,.68.41,2.52,2.52,0,0,0,3.42-.9,2.55,2.55,0,0,0-.9-3.42l-4.06-2.86a2.52,2.52,0,0,0-3.42.9,2.55,2.55,0,0,0,.9,3.42l4.06,2.86,2.52-4.32a7.44,7.44,0,0,0-4.74-1.24,2.55,2.55,0,0,0-2.5,2.5,2.52,2.52,0,0,0,2.5,2.5" transform="translate(0 0)"/><path class="cls-6" d="M55.16,215.63c1.17,2.24,3.38,3.2,5.55,4.27,2.48,1.22,5,2.44,7.46,3.64,2.89,1.39,5.43-2.92,2.52-4.31l-6-2.93c-1.6-.79-4.35-1.54-5.22-3.19-1.48-2.86-5.8-.33-4.31,2.52" transform="translate(0 0)"/><path class="cls-6" d="M58.4,216.7a21.68,21.68,0,0,0,8.68,5.14c3.07,1,4.39-3.86,1.32-4.82a16.15,16.15,0,0,1-6.46-3.85c-2.31-2.24-5.85,1.29-3.54,3.53" transform="translate(0 0)"/><path class="cls-6" d="M99.76,228.54a40.75,40.75,0,0,1-9.58-1.27c-2.81-.82-4.71-2.81-7.36-3.86s-5.27-1.27-7.9-2.54c-1.79-.86-3.1-1.53-5.06-.86s-2.67,3.57-.59,4.57l13.27,6.35c2.89,1.38,5.43-2.93,2.53-4.32l-13.28-6.35-.6,4.57c1.32-.45,4.39,2.3,6,2.65a34.58,34.58,0,0,1,8.44,3.38c4.25,2.14,9.5,2.47,14.18,2.68,3.22.15,3.21-4.85,0-5" transform="translate(0 0)"/><path class="cls-6" d="M85.72,230.43c2.24-.23,4.39.52,6.63.55s4.24.88,6.42.77c3.2-.17,3.22-5.17,0-5-2.08.11-4.27-.73-6.42-.77s-4.37-.78-6.63-.55c-3.17.32-3.2,5.32,0,5" transform="translate(0 0)"/><path class="cls-6" d="M101.59,233.07a7.11,7.11,0,0,1,3.84.63l.66-4.91-4,.19c-3.2.16-3.24,5,0,5q5.73,0,11.47-.07v-5a37.69,37.69,0,0,0-6.62.83c-3,.64-1.91,4.59.66,4.91l4.86.59c2.93.36,3.19-4.06.66-4.91a20.87,20.87,0,0,0-8-1.09,2.53,2.53,0,0,0-2.41,3.17c1.23,3.5,3.58,2.44,6.7,2.74,3.66.34,6.08.82,9.34-1.29h-2.52s.81,1,.82,1a2.59,2.59,0,0,0,3,.4c.93-.43,1.44-1.35,2.22-.94l.6-4.57-1.21.35c.44,1.61.89,3.22,1.33,4.82.64-.21,1.29-.4,1.95-.55,1.66-.22,2.26-1.54,1.79-4l-.66,4.91A25.27,25.27,0,0,0,134.7,233c2.05-.95,1.32-4-.59-4.57a6.29,6.29,0,0,0-5,.47,2.51,2.51,0,0,0-.5,3.93c4,3.18,8.35,2.64,11.24-1.61a2.52,2.52,0,0,0-1.5-3.67c-5.44-1.55-6.62,5.45-1.14,6.19,4.29.57,9.74-6.36,4-7.4-1.76-.33-3.69,1.11-3.07,3.07,1.66,5.26,7.16,3.55,8.84-.68,1.18-3-3.65-4.29-4.82-1.33l.8.68-3.08,3.08-2.25-2.47c.21.81.43,1.62.64,2.44L137,232.37c-.49-1.23-1-2.45-1.49-3.68l-3.39.6c-.16,1.31-.33,2.62-.5,3.93l1.14,0-.6-4.57a17.24,17.24,0,0,1-6.09,1.65,2.51,2.51,0,0,0-.67,4.91c2.63.91,6.2-.44,5.1-3.86-1.2-3.75-6.3-2-8.84-1.25-3.07.93-1.77,5.72,1.33,4.82l1.21-.35c2-.57,2.56-3.55.6-4.57a6.53,6.53,0,0,0-4.19-1.05c-1.37.28-1.95,1.47-3.08,2l3,.39c-.69-.7-.94-1.31-1.84-1.81a2.47,2.47,0,0,0-2.52,0c-3.24,2.08-7.42.11-11.08.76l2.43.65,0,.12-2.41,3.16a17.11,17.11,0,0,1,6.63.91c.23-1.64.45-3.27.67-4.91l-4.86-.59c.22,1.63.44,3.27.67,4.91a30.24,30.24,0,0,1,5.29-.65c3.2-.11,3.23-5.06,0-5q-5.74.12-11.47.07v5l4-.19a2.51,2.51,0,0,0,.67-4.91,14.28,14.28,0,0,0-5.17-.81c-3.21.06-3.22,5.06,0,5" transform="translate(0 0)"/><path class="cls-6" d="M159.5,222.28c-.32.57-2.47.91-3.1,1.2a31.25,31.25,0,0,1-4.41,1.57,36.49,36.49,0,0,0-3.47,1.2c-1.35.53-2.62.52-3.92,1L147,231.4c2-2.09,5.08-2,7.68-2.79,2.35-.7,4.33-2.6,6.69-3,3.16-.53,1.82-5.35-1.33-4.82a9.57,9.57,0,0,0-3.58,1.49,16,16,0,0,1-5.22,2c-2.94.65-5.66,1.32-7.78,3.58-1.6,1.71,0,5,2.44,4.18-.7.24,1,.09,1.26.06a6.64,6.64,0,0,0,2.12-.67,54.76,54.76,0,0,1,6-2.11c1.72-.55,3.32-1.23,5-1.73a5.43,5.43,0,0,0,3.5-2.8c1.57-2.81-2.75-5.33-4.32-2.52" transform="translate(0 0)"/><path class="cls-6" d="M192.86,201.31a38.25,38.25,0,0,1-7.72,7.58c-3,2.16-6.29,2.8-9.48,4.46-2.64,1.37-4.51,3.3-7.36,4.48a25.81,25.81,0,0,0-6.54,3.9c-2.5,2,1.06,5.55,3.54,3.54s5.33-2.64,8.08-4.14c1-.55,1.71-1.3,2.65-1.91a30.89,30.89,0,0,1,5.92-2.81c5.75-2.28,10.66-6.78,14.45-11.57,2-2.5-1.54-6.06-3.54-3.53" transform="translate(0 0)"/><path class="cls-6" d="M187.34,205.92c-4.08,1-7.23,5-10.29,7.7-4.22,3.7-9.53,6-14.47,8.6-2.85,1.51-.32,5.83,2.52,4.31,4.11-2.18,8.66-4.09,12.46-6.79,3.41-2.42,6.94-8,11.11-9,3.13-.73,1.81-5.55-1.33-4.82" transform="translate(0 0)"/><path class="cls-6" d="M203.2,190.91a11,11,0,0,1-4.23,4.9c-2.73,1.7-.23,6,2.52,4.32a15.72,15.72,0,0,0,6-6.69,2.56,2.56,0,0,0-.9-3.42,2.51,2.51,0,0,0-3.42.89" transform="translate(0 0)"/><path class="cls-6" d="M198.93,202.15l2.45-2.63-4.27-1.76c0,.75-1,.44-1.79.92-.62.38-.89,1-1.39,1.54-2.24,2.19-5.24,2.88-6.72,5.75a2.52,2.52,0,0,0,3.42,3.42c3.54-1.87,6.12-4.59,8.69-7.62l-4.18-1.11c.07.34.14.67.2,1,.48,2.33,3.4,2.14,4.57.59,3.39-4.51,6.83-9,10.61-13.16l-4.18-2.43a7.15,7.15,0,0,1-1.46,3.23l4.32,2.53a42.15,42.15,0,0,1,5.48-8.61l-4.17-2.43a11.38,11.38,0,0,1-2.36,4c-2.06,2.45,1.46,6,3.53,3.54a21.07,21.07,0,0,0,3.65-6.2c.88-2.3-2.62-4.32-4.18-2.44a47.61,47.61,0,0,0-6.27,9.62,2.5,2.5,0,0,0,4.32,2.53,14.89,14.89,0,0,0,2-4.43c.62-2.33-2.46-4.34-4.18-2.44-4.07,4.51-7.74,9.33-11.38,14.18l4.56.6c-.06-.34-.13-.67-.2-1a2.52,2.52,0,0,0-4.18-1.1c-2.29,2.7-4.49,5.16-7.67,6.84l3.42,3.42c.9-1.74,3.74-2.12,5.13-3.41a23.1,23.1,0,0,1,2.05-2.1c2.17-1.58,3.57-2.16,3.4-5.22-.11-2.06-2.71-3.44-4.26-1.77l-2.46,2.63c-2.19,2.35,1.33,5.89,3.54,3.53" transform="translate(0 0)"/><path class="cls-6" d="M220.4,163.59a20.65,20.65,0,0,1-2.17,3.72,28.56,28.56,0,0,0-1.52,3.77c-.57,1.45-1.49,2.63-2.14,4-.51,1.1-.69,2.91-1.86,3.56l3.67,2.82a13.56,13.56,0,0,1,1.75-3.76c1.76-2.7-2.57-5.21-4.32-2.52a17.72,17.72,0,0,0-2.25,4.95,2.52,2.52,0,0,0,3.67,2.82c2.91-1.61,3.65-5.2,5.17-7.95.91-1.66,1.22-3.55,2.15-5.2a28.07,28.07,0,0,0,2.67-4.91c1-3.06-3.82-4.38-4.82-1.33" transform="translate(0 0)"/><path class="cls-6" d="M219.49,167.38c-.07.27-.13.54-.22.81,0,.07-.28.78-.16.49s-.2.4-.24.46a6.59,6.59,0,0,1-.44.72,2.52,2.52,0,0,0,.9,3.42,2.56,2.56,0,0,0,3.42-.89,11.29,11.29,0,0,0,1.56-3.68,2.5,2.5,0,1,0-4.82-1.33" transform="translate(0 0)"/><path class="cls-6" d="M228.71,134.75c.54,5.05-2,9.29-3.36,14s-1.81,9.65-4.19,14.05c-1.52,2.83,2.79,5.36,4.32,2.52,2.6-4.82,3.16-10.06,4.69-15.24s4.13-9.79,3.54-15.33c-.34-3.17-5.34-3.2-5,0" transform="translate(0 0)"/><path class="cls-6" d="M222.51,157.08a14.41,14.41,0,0,1-1.44,5.18c-1.43,2.87,2.88,5.4,4.31,2.52a20.73,20.73,0,0,0,2.13-7.7,2.5,2.5,0,0,0-5,0" transform="translate(0 0)"/><path class="cls-6" d="M228.37,136.28a39.84,39.84,0,0,1-.46,5.24,2.59,2.59,0,0,0,1.75,3.08,2.51,2.51,0,0,0,3.07-1.75,49.88,49.88,0,0,0,.64-6.57c.09-3.22-4.91-3.21-5,0" transform="translate(0 0)"/><path class="cls-6" d="M227.8,140.36a20.87,20.87,0,0,1-1.09,7.8c-1,3.05,3.8,4.36,4.82,1.32a24.74,24.74,0,0,0,1.27-9.12c-.16-3.2-5.16-3.22-5,0" transform="translate(0 0)"/><path class="cls-6" d="M229.59,145.39c3.21,0,3.22-5,0-5s-3.23,5,0,5" transform="translate(0 0)"/><path class="cls-6" d="M226.45,150.34a15.52,15.52,0,0,1-1.53,5.2c-1.43,2.88,2.88,5.41,4.31,2.53a22.29,22.29,0,0,0,2.22-7.73,2.52,2.52,0,0,0-2.5-2.5,2.55,2.55,0,0,0-2.5,2.5" transform="translate(0 0)"/><path class="cls-6" d="M225.08,86.41a23.14,23.14,0,0,1,2.22,5.85l4.57-1.92-1.13-2.55c-1.24-2.78-5-.65-4.57,1.92a35.26,35.26,0,0,0,2.54,8.34c1,2.36,4.67,1,4.66-1.26a25.44,25.44,0,0,0-.54-5.15c-.49-2.38-4.34-2.38-4.83,0a18.76,18.76,0,0,0,1.82,13c1.23,2.39,4.45,1,4.65-1.26a28,28,0,0,0,0-5.42,2.51,2.51,0,0,0-4.91-.67,21.6,21.6,0,0,0,0,14.24c.72,2.14,4.35,2.6,4.82,0a30.82,30.82,0,0,0,.54-6.84c-.1-2.7-4.31-3.54-4.91-.67-1.23,5.93-2.12,11.58-1.19,17.62.38,2.46,4.32,2.31,4.82,0,.85-3.89,1.48-7.78,1.94-11.73h-5a125.35,125.35,0,0,1,.32,12.71c-.18,3.94-1.74,7.79-1.39,11.71l4.91-.66c-1.06-3.82-.71-7.53-.23-11.41.39-3.19-4.62-3.16-5,0-.54,4.37-.78,8.46.41,12.74.73,2.62,5.17,2.22,4.91-.67-.33-3.77,1.26-7.83,1.39-11.71.13-4.23-.08-8.49-.32-12.71-.18-3.28-4.63-3.15-5,0-.41,3.51-1,7-1.76,10.4h4.82c-.78-5.08.16-10,1.19-15l-4.91-.66a24.37,24.37,0,0,1-.36,5.51h4.82a17.36,17.36,0,0,1,0-11.58L229.45,98a28,28,0,0,1,0,5.42l4.66-1.26a13,13,0,0,1-1.3-9.15H228a12.63,12.63,0,0,1,.37,3.82L233,95.52a30.05,30.05,0,0,1-2-7.14l-4.57,1.93c.38.85.76,1.7,1.13,2.55,1.19,2.67,5.21.72,4.58-1.93a27.82,27.82,0,0,0-2.74-7c-1.54-2.83-5.85-.31-4.31,2.52" transform="translate(0 0)"/><path class="cls-6" d="M209.34,50.25A4,4,0,0,0,209,53.9c.48,1.26,2.06,1.89,2.46,3a2.51,2.51,0,0,0,4.83-1.33l-.38-2.55c-.41-2.75-4-2-4.82,0-2.39,5.79,5,11.12,6.95,16.13,2.09,5.52,3.37,13.22,8.72,16.58A2.52,2.52,0,0,0,230.43,83,133.58,133.58,0,0,0,225,68.17c-2.34-5.07-6.33-9.06-8.71-14-1.4-2.89-5.71-.36-4.31,2.53,2.14,4.43,5.78,8,8,12.45a112.46,112.46,0,0,1,5.68,15.1l3.67-2.83c-4.18-2.62-5.09-10.29-6.74-14.61-1.18-3.11-7.9-9.37-6.63-12.45h-4.82l.37,2.55,4.83-1.33c-.28-.79-2-4.18-2.63-2.84,1.35-2.9-3-5.44-4.32-2.52" transform="translate(0 0)"/><path class="cls-6" d="M184,27.64c5.82,2.88,11,8.26,15.93,12.52,3.66,3.18,6,8.23,8.93,12.18l3.42-3.42c-4.56-3.08-6.22-8.86-10.85-12-2.19-1.5-4.5,1.36-3.42,3.42a13.7,13.7,0,0,0,4.18,4.8c2.35,1.8,4.84-1.92,3-3.92-3.18-3.52-6.2-7.43-9.9-10.44s-8-5.72-12-8.53c-2.64-1.86-5.14,2.47-2.52,4.31,4,2.83,8.4,5.44,12.07,8.69,3.2,2.84,5.92,6.34,8.79,9.5l3-3.92a6.84,6.84,0,0,1-2.4-3l-3.42,3.42c4.55,3.12,6.19,8.88,10.86,12,2,1.36,4.89-1.4,3.42-3.42-3.19-4.38-5.63-9.65-9.71-13.2-5.21-4.53-10.72-10.22-16.94-13.3-2.88-1.43-5.41,2.88-2.53,4.32" transform="translate(0 0)"/><path class="cls-6" d="M173.25,21.61c3.21,0,3.22-5,0-5s-3.23,5,0,5" transform="translate(0 0)"/><path class="cls-6" d="M174.8,22c1.5.18,2,1.44,2.92,2.41s2.46,1.14,3.25,2.11a2.51,2.51,0,0,0,3.53,0,2.56,2.56,0,0,0,0-3.54,5.67,5.67,0,0,0-2.16-1.52c-1-.45-1.15-.8-1.88-1.66A8.43,8.43,0,0,0,174.8,17a2.51,2.51,0,0,0-2.5,2.5,2.56,2.56,0,0,0,2.5,2.5" transform="translate(0 0)"/><path class="cls-6" d="M173.11,20.17c1.71.13,3.57,2,4.89,3,1.75,1.27,3.47,2.55,5.2,3.84,2.57,1.93,5.07-2.4,2.52-4.31q-3.27-2.46-6.59-4.86c-1.91-1.38-3.61-2.51-6-2.69-3.21-.23-3.2,4.78,0,5" transform="translate(0 0)"/><path class="cls-6" d="M175.78,23.29c3.21,0,3.22-5,0-5s-3.23,5,0,5" transform="translate(0 0)"/><path class="cls-6" d="M119.76,5.52c2.57,2.89,4.72.47,7.75,1.47.44-1.61.89-3.22,1.33-4.83l-5.06-.85c-3.13-.52-4.51,4.23-1.33,4.82,8.41,1.59,16.91,3,25.27,4.79,7.68,1.68,15.05,5.68,22.05,9.15,2.87,1.43,5.41-2.88,2.52-4.32-6.93-3.44-14.36-7.39-21.9-9.34-8.68-2.26-17.8-3.44-26.61-5.1-.44,1.61-.89,3.22-1.33,4.82l5.06.86c3.13.52,4.44-3.8,1.33-4.83-.76-.24-5.32.08-5.55-.18-2.14-2.41-5.67,1.14-3.53,3.54" transform="translate(0 0)"/><path class="cls-6" d="M128.71,6.33c7.69-.33,14.73,2,21.87,4.61a33.66,33.66,0,0,0,7,1.68,28.44,28.44,0,0,1,11.61,4.9c2.67,1.81,5.17-2.52,2.52-4.31A38.52,38.52,0,0,0,161.57,8.3c-3.21-1-6.47-1-9.67-2.18C144.35,3.37,136.84,1,128.71,1.33c-3.2.14-3.22,5.14,0,5" transform="translate(0 0)"/><path class="cls-6" d="M125.76,7.84c3.22,0,3.22-5,0-5s-3.22,5,0,5" transform="translate(0 0)"/><path class="cls-6" d="M106.79,7.28c3.22,0,3.22-5,0-5s-3.22,5,0,5" transform="translate(0 0)"/><path class="cls-6" d="M100.67,8.09c3.87.57,7.55-.65,11.43-.77,3.46-.1,7,.26,10.12-1.32,1.56-.78,1.7-3.58,0-4.32A13.76,13.76,0,0,0,112.85,1c-1.61.37-3.25.42-4.86.79-2.4.54-4.46,1.56-7,1.41-3.23-.19-3.18,4.75,0,5a8.79,8.79,0,0,0,4.46-.86c2.23-1,1.13-3.89-.59-4.57l-.52-.21c-3-1.19-4.29,3.64-1.33,4.82l.52.21L103,3,101,3.16v5c3,.18,5.42-1,8.31-1.59,3.11-.65,7.45-1.84,10.37-.57V1.68c-2.42,1.21-6.25.56-8.85.68-2.82.14-6.07,1.32-8.84.91-3.15-.46-4.51,4.36-1.33,4.82" transform="translate(0 0)"/><path class="cls-6" d="M99.47,3.33A14.84,14.84,0,0,0,91.23,4.7a38.75,38.75,0,0,1-4.17,1.44c-1.52.55-2.82,1.66-4.49,1.6.59,1.43,1.17,2.85,1.76,4.27,1.55-1.37,2.2-1.38,4.17-1a5.49,5.49,0,0,0,3,0c.93-.34,1.46-1.14,2.43-1.39s2.41.09,3.58-.18c3.13-.73,1.8-5.55-1.33-4.82C94.54,5,93,4.35,91.43,5c-.35.16-1.49,1.18-1.73,1.22.62-.12-1-.5-1.17-.55-3.09-.79-5.5.79-7.73,2.77-1.71,1.5-.27,4.19,1.77,4.26,2.77.1,5.07-1.53,7.65-2.27A21.65,21.65,0,0,0,93.75,9a10.46,10.46,0,0,1,5.72-.69c3.21.23,3.2-4.77,0-5" transform="translate(0 0)"/><path class="cls-6" d="M121.4,7.42c3.22,0,3.23-5,0-5s-3.22,5,0,5" transform="translate(0 0)"/><path class="cls-6" d="M93,11.07c3.22,0,3.23-5,0-5s-3.22,5,0,5" transform="translate(0 0)"/><path class="cls-6" d="M79.46,7.77c.43-.34-.07-.14-.38-.15a5.34,5.34,0,0,0-1.25.15,7.52,7.52,0,0,0-2.56,1.32,39.39,39.39,0,0,1-5.65,3.22c-2.1,1-1.25,3.9.59,4.57,2.15.78,4-.12,6-.92a49.3,49.3,0,0,0,6.46-2.78c2.78-1.62.27-5.94-2.52-4.31a36.14,36.14,0,0,1-4.51,2c-1.06.43-2.94,1.64-4.09,1.23l.6,4.57a48.8,48.8,0,0,0,5.91-3.42,4.35,4.35,0,0,1,2.22-.68A5.09,5.09,0,0,0,83,11.31c2.54-2-1-5.5-3.53-3.54" transform="translate(0 0)"/><path class="cls-6" d="M68.36,12.69a28.64,28.64,0,0,0-6.31,4.11c-1.84,1.55.14,5.14,2.44,4.18l5.43-2.28c2.43-1,2.4-4.92-.66-4.91-6.29,0-9.54,4.54-14.32,7.86-2.62,1.83-.13,6.16,2.52,4.32L65,20.73c1.85-1.29,1.42-4.86-1.27-4.66-3.42.26-5.67,1.79-8.35,3.86-2.44,1.88-5.91,6.65-9,7l1.77,4.27a36.88,36.88,0,0,1,5.61-5.7l-3.93-3c-2.75,4.55-6.6,8-10.58,11.46l4.17,2.43A21.44,21.44,0,0,1,46,31.66c1.61-2.31-2.08-5.18-3.93-3-3.35,3.91-7.1,7.79-9.82,12.19-1.52,2.45,1.9,5,3.92,3A50,50,0,0,0,41,38.48c1.93-2.5-1.06-5.73-3.53-3.54-2.19,1.94-4.43,3.78-6.76,5.55-2.53,1.92,0,6.26,2.52,4.32s5.26-4.12,7.77-6.33l-3.53-3.54a49,49,0,0,1-4.81,5.37l3.92,3a33.81,33.81,0,0,1,5.29-6.2c1.5-1.5,2.38-3.37,3.76-5l-3.93-3A27.55,27.55,0,0,0,38.61,35c-1,2.54,2.49,3.9,4.18,2.44,4.32-3.75,8.39-7.55,11.37-12.48,1.55-2.57-1.84-4.75-3.93-3a38.76,38.76,0,0,0-5.61,5.7c-1.16,1.46-.63,4.54,1.77,4.27,7.24-.81,10.19-10.32,17.36-10.86l-1.26-4.66-7.55,5.24L57.46,26c3.72-2.58,6.94-7.16,11.8-7.18-.22-1.63-.44-3.27-.67-4.91l-5.43,2.28,2.43,4.18A22.78,22.78,0,0,1,70.88,17c2.91-1.37.37-5.69-2.52-4.31" transform="translate(0 0)"/><path class="cls-6" d="M31.8,41.51c-3.59.53-6.39,4.72-7.85,7.71a2.57,2.57,0,0,0,.89,3.42,2.51,2.51,0,0,0,3.42-.89,15.55,15.55,0,0,1,2.2-3.45,4.76,4.76,0,0,1,2.67-2,2.5,2.5,0,0,0,1.74-3.07,2.57,2.57,0,0,0-3.07-1.75" transform="translate(0 0)"/><path class="cls-6" d="M28.47,44.26c-.24,1.62-1.36,2-2.4,3.14a15.35,15.35,0,0,0-2.49,4.08,2.57,2.57,0,0,0,.9,3.42A2.53,2.53,0,0,0,27.9,54a10.12,10.12,0,0,1,2.8-4,7,7,0,0,0,2.6-4.37,2.59,2.59,0,0,0-1.75-3.08,2.53,2.53,0,0,0-3.08,1.75" transform="translate(0 0)"/><path class="cls-6" d="M22,53a12.24,12.24,0,0,1-1.95,4.65l4.57,1.92c.91-2.24,1.84-4.47,2.81-6.7a2.59,2.59,0,0,0-.9-3.42,2.51,2.51,0,0,0-3.42.9C22,53,20.91,55.63,19.84,58.27a2.48,2.48,0,0,0,1.44,2.95,2.54,2.54,0,0,0,3.13-1,15.78,15.78,0,0,0,2.45-5.84c.63-3.15-4.19-4.49-4.82-1.33" transform="translate(0 0)"/><path class="cls-6" d="M21,54.43C19.74,58.58,17,62.16,15,66,13,69.54,11.71,73.41,9.84,77c-1.47,2.86,2.84,5.39,4.32,2.53,2.13-4.12,3.63-8.5,5.93-12.54,2.09-3.66,4.5-7.19,5.75-11.25.94-3.09-3.89-4.41-4.83-1.33" transform="translate(0 0)"/><path class="cls-6" d="M19.64,55.79A140.09,140.09,0,0,0,8.42,78.29c-1.18,3,3.66,4.3,4.82,1.33A132.81,132.81,0,0,1,24,58.31c1.7-2.75-2.63-5.26-4.32-2.52" transform="translate(0 0)"/><path class="cls-6" d="M8,79c.07,1.92-1.15,3.68-1.86,5.42A44.13,44.13,0,0,0,4.33,90c-.79,3.13,4,4.46,4.82,1.33a39.85,39.85,0,0,1,2.27-6.54c.85-1.92,1.68-3.66,1.6-5.81-.12-3.21-5.12-3.23-5,0" transform="translate(0 0)"/><path class="cls-6" d="M8.52,79.94c-.1,2.37-1.8,4.37-2.31,6.66s-.93,4.57-1.57,6.87c-.87,3.1,4,4.43,4.82,1.33.7-2.52,1-5.2,1.78-7.66s2.16-4.47,2.28-7.2c.15-3.22-4.85-3.21-5,0" transform="translate(0 0)"/></g></g></g></g></g></svg>